HIERARCHY
ROOT mixamorig:Hips
{
  OFFSET 0.000000 0.000000 0.000000
  CHANNELS 6 Xposition Yposition Zposition Xrotation Yrotation Zrotation
  JOINT mixamorig:Spine
  {
    OFFSET 1.153752 24.040563 -4.909010
    CHANNELS 3 Xrotation Yrotation Zrotation
    JOINT mixamorig:Spine2
    {
      OFFSET 1.153752 24.040563 -4.909010
      CHANNELS 3 Xrotation Yrotation Zrotation
      JOINT mixamorig:Neck
      {
        OFFSET 0.000000 4.932851 0.000000
        CHANNELS 3 Xrotation Yrotation Zrotation
        JOINT mixamorig:Head
        {
          OFFSET 0.000000 5.437762 0.000000
          CHANNELS 3 Xrotation Yrotation Zrotation
          End Site
          {
            OFFSET 0.000000 1.631329 0.000000
          }
        }
      }
      JOINT mixamorig:LeftShoulder
      {
        OFFSET 16.168012 6.279607 -4.266810
        CHANNELS 3 Xrotation Yrotation Zrotation
        JOINT mixamorig:LeftArm
        {
          OFFSET 6.545061 -21.632230 2.960170
          CHANNELS 3 Xrotation Yrotation Zrotation
          JOINT mixamorig:LeftForeArm
          {
            OFFSET 1.498368 -23.182161 2.338304
            CHANNELS 3 Xrotation Yrotation Zrotation
            JOINT mixamorig:LeftHand
            {
              OFFSET -1.465154 -3.436964 -0.741780
              CHANNELS 3 Xrotation Yrotation Zrotation
              End Site
              {
                OFFSET -0.439546 -1.031089 -0.222534
              }
            }
          }
        }
      }
      JOINT mixamorig:RightShoulder
      {
        OFFSET -16.168012 6.279607 4.266810
        CHANNELS 3 Xrotation Yrotation Zrotation
        JOINT mixamorig:RightArm
        {
          OFFSET -21.602294 -8.789214 -2.250702
          CHANNELS 3 Xrotation Yrotation Zrotation
          JOINT mixamorig:RightForeArm
          {
            OFFSET -22.892153 1.498261 -8.563673
            CHANNELS 3 Xrotation Yrotation Zrotation
            JOINT mixamorig:RightHand
            {
              OFFSET -1.659101 2.167831 -4.005455
              CHANNELS 3 Xrotation Yrotation Zrotation
              End Site
              {
                OFFSET -0.497730 0.650349 -1.201637
              }
            }
          }
        }
      }
    }
  }
  JOINT mixamorig:LeftUpLeg
  {
    OFFSET 8.955008 -0.525145 1.977289
    CHANNELS 3 Xrotation Yrotation Zrotation
    JOINT mixamorig:LeftLeg
    {
      OFFSET 1.504921 -41.558457 -0.051202
      CHANNELS 3 Xrotation Yrotation Zrotation
      JOINT mixamorig:LeftFoot
      {
        OFFSET -3.448404 -39.156571 14.502048
        CHANNELS 3 Xrotation Yrotation Zrotation
        JOINT mixamorig:LeftToeBase
        {
          OFFSET 3.341826 -2.164793 -7.190124
          CHANNELS 3 Xrotation Yrotation Zrotation
          End Site
          {
            OFFSET 1.002548 -0.649438 -2.157037
          }
        }
      }
    }
  }
  JOINT mixamorig:RightUpLeg
  {
    OFFSET -8.955008 0.525145 -1.977289
    CHANNELS 3 Xrotation Yrotation Zrotation
    JOINT mixamorig:RightLeg
    {
      OFFSET 2.492134 -34.880539 -0.332581
      CHANNELS 3 Xrotation Yrotation Zrotation
      JOINT mixamorig:RightFoot
      {
        OFFSET -0.863658 -42.213506 12.698094
        CHANNELS 3 Xrotation Yrotation Zrotation
        JOINT mixamorig:RightToeBase
        {
          OFFSET -2.361686 -0.997600 -10.601731
          CHANNELS 3 Xrotation Yrotation Zrotation
          End Site
          {
            OFFSET -0.708506 -0.299280 -3.180519
          }
        }
      }
    }
  }
}
MOTION
Frames: 10
Frame Time: 0.083333
0.108163 0.179608 0.118119 3.982048 -0.249911 -0.359313 0.000000 0.000000 0.000000 -11.911350 -7.856291 -0.726195 -18.615565 1.972870 -3.141233 -18.652046 1.071211 -3.932725 1.414492 4.900843 -4.883674 4.330706 4.161320 11.265338 -5.104171 2.338380 -1.592845 0.000000 0.000000 0.000000 -21.928123 -36.076915 109.756529 -94.374119 30.033148 -103.720660 38.627122 62.606250 -133.464643 0.000000 0.000000 0.000000 -5.615179 0.108345 -3.139844 -1.247514 1.231492 5.906910 -22.836764 13.773409 -22.718556 0.000000 0.000000 0.000000 -11.958730 -0.292228 2.205956 2.787816 -0.075863 -3.410289 -4.724144 11.216442 1.848515 0.000000 0.000000 0.000000
0.102138 0.186033 0.123375 3.383785 -0.200976 -0.228826 0.000000 0.000000 0.000000 -12.001639 -9.733044 -1.232607 -18.432761 3.299811 -2.750512 -18.474455 2.599262 -3.931821 2.050573 6.852354 -4.361290 2.975194 4.004389 11.766507 -5.470119 3.345939 -3.166126 0.000000 0.000000 0.000000 -24.131028 -45.462216 112.421910 -74.277520 29.821443 -109.925306 33.818279 56.809841 -119.247235 0.000000 0.000000 0.000000 -5.411810 0.046375 -3.277239 -1.033718 1.317514 5.974540 -20.277793 14.984949 -21.879967 0.000000 0.000000 0.000000 -11.328078 -0.308372 2.064558 2.690323 -0.070191 -3.396633 -3.875685 10.530292 1.854978 0.000000 0.000000 0.000000
0.098463 0.190706 0.127094 3.107909 -0.166864 -0.104916 0.000000 0.000000 0.000000 -12.042442 -10.575134 -1.539981 -18.411261 4.220944 -2.947983 -18.455190 3.506152 -4.427431 2.406388 7.769872 -4.112633 2.299175 3.889497 11.886171 -5.481709 3.677975 -3.712780 0.000000 0.000000 0.000000 -23.451902 -46.160839 112.868398 -72.461404 26.635358 -104.753988 38.850121 52.766035 -127.585266 0.000000 0.000000 0.000000 -5.003603 0.033445 -3.463113 -1.048177 1.339779 6.147121 -19.375018 15.639258 -21.668334 0.000000 0.000000 0.000000 -10.734921 -0.298096 1.933855 2.601630 -0.086095 -3.393492 -3.693653 10.217421 1.851798 0.000000 0.000000 0.000000
0.096054 0.193932 0.129136 3.177962 -0.154914 -0.018481 0.000000 0.000000 -0.000000 -12.026312 -10.244496 -1.559013 -18.451627 4.193983 -3.378275 -18.520408 3.340420 -4.874168 2.452923 7.475002 -4.256440 1.950668 3.832134 12.016779 -5.391379 3.797124 -4.322058 0.000000 0.000000 0.000000 -22.945411 -46.266645 111.018589 -72.738293 21.922783 -97.330720 43.575339 48.045114 -136.834231 0.000000 0.000000 0.000000 -4.939913 0.036437 -3.659320 -1.103145 1.364770 6.374368 -19.191507 15.797534 -21.718513 0.000000 0.000000 0.000000 -10.186180 -0.259575 1.830741 1.840294 -0.101130 -3.391957 -3.246937 10.298807 1.814290 0.000000 0.000000 0.000000
0.094273 0.196300 0.131178 3.149470 -0.137637 0.072490 0.000000 0.000000 -0.000000 -12.024193 -10.199870 -1.648396 -18.450296 4.225925 -3.626434 -18.532281 3.295169 -5.144737 2.599086 7.470691 -4.350056 1.674161 3.766509 12.050872 -5.381042 3.963314 -5.132127 0.000000 0.000000 0.000000 -22.331106 -46.948277 109.582197 -70.928899 18.243766 -93.062948 45.461382 44.260368 -140.427827 0.000000 0.000000 0.000000 -4.763385 0.036416 -3.812304 -1.177252 1.368977 6.505558 -18.671621 16.112787 -21.568431 0.000000 0.000000 0.000000 -9.668643 -0.233607 1.728321 1.233098 -0.116375 -3.402184 -2.597106 10.261066 1.767688 0.000000 0.000000 0.000000
0.092348 0.197798 0.133303 3.281785 -0.133741 0.131126 -0.000000 0.000000 -0.000000 -12.022186 -10.160551 -1.676075 -18.515619 4.185232 -3.743374 -18.603448 3.212709 -5.260658 2.533465 7.499133 -4.195725 1.736874 3.671114 11.629613 -5.389307 3.985248 -5.470348 0.000000 0.000000 0.000000 -22.046759 -46.227121 108.732670 -71.517782 16.352149 -89.928628 46.968174 42.246083 -143.194738 0.000000 0.000000 0.000000 -4.829224 0.040721 -3.984976 -1.029806 1.404381 6.761662 -17.564436 16.776884 -21.189029 0.000000 0.000000 0.000000 -9.480962 -0.210604 1.654011 0.974607 -0.128768 -3.393706 -1.904397 9.889682 1.725770 0.000000 0.000000 0.000000
0.090410 0.198536 0.136414 3.524066 -0.147448 0.119420 -0.000000 0.000000 -0.000000 -12.022335 -10.168503 -1.622229 -18.619184 4.061861 -3.769670 -18.706439 3.070120 -5.258303 2.493109 7.633496 -3.995705 1.637564 3.477602 10.971212 -5.507168 4.061831 -5.343261 0.000000 0.000000 0.000000 -21.828165 -45.119231 108.010103 -72.225930 15.598996 -89.406114 47.899404 41.897618 -143.629364 0.000000 0.000000 0.000000 -4.920355 0.062911 -4.089675 -0.654137 1.430394 7.068758 -15.715851 18.004070 -20.421750 0.000000 0.000000 0.000000 -9.202284 -0.171086 1.641664 0.748531 -0.143763 -3.345164 -1.126759 9.348818 1.630437 0.000000 0.000000 0.000000
0.088616 0.198714 0.140054 3.904324 -0.176845 0.054822 -0.000000 0.000000 -0.000000 -11.988295 -9.471518 -1.384596 -18.736058 3.500270 -3.967774 -18.828545 2.409566 -5.298140 2.265634 7.042953 -3.834632 1.420998 3.298230 10.366010 -5.415948 4.027472 -4.703790 0.000000 0.000000 0.000000 -21.886421 -44.977849 106.270704 -72.868066 14.968916 -90.434557 47.549320 43.405791 -141.199901 0.000000 0.000000 0.000000 -4.917802 0.113224 -4.108509 -0.053151 1.399658 7.342399 -14.902839 19.190506 -19.957234 0.000000 0.000000 0.000000 -8.934533 -0.117351 1.670225 0.787496 -0.168491 -3.262995 -1.386054 9.301449 1.530932 0.000000 0.000000 0.000000
0.087124 0.198407 0.142772 4.379732 -0.201992 0.041200 0.000000 0.000000 0.000000 -11.947509 -8.633370 -1.170634 -18.914089 2.946105 -4.203180 -19.006342 1.740418 -5.382600 1.900539 6.332976 -3.531688 1.326287 3.225362 10.465521 -5.360666 3.810099 -3.632254 0.000000 0.000000 0.000000 -21.418100 -45.523279 102.870159 -72.798692 11.326855 -87.832361 46.724431 43.296003 -138.972811 0.000000 0.000000 0.000000 -4.967633 0.167575 -4.161133 0.282126 1.353632 7.547737 -14.520701 20.431643 -19.885249 0.000000 0.000000 0.000000 -8.794445 -0.062423 1.595107 0.900205 -0.198310 -3.147703 -1.926825 9.560811 1.444472 0.000000 0.000000 0.000000
0.085270 0.197763 0.143918 4.957406 -0.217829 0.115224 0.000000 0.000000 0.000000 -11.931434 -8.311303 -1.106875 -19.202586 2.872511 -4.285101 -19.292750 1.621828 -5.466981 1.369240 6.280071 -2.410237 1.515322 3.218990 11.301632 -5.690032 3.491131 -2.194834 0.000000 0.000000 0.000000 -20.045693 -45.896833 98.177013 -72.994901 4.767528 -81.036609 47.452162 40.931844 -142.241782 0.000000 0.000000 0.000000 -5.478081 0.195272 -4.383007 0.764833 1.331250 7.731069 -15.093362 21.555072 -20.382977 0.000000 0.000000 0.000000 -9.187071 -0.028896 1.353044 1.388544 -0.218334 -2.977909 -2.578261 10.393185 1.324594 0.000000 0.000000 0.000000
